<mxfile host="app.diagrams.net" modified="2023-04-16T16:27:02.649Z" agent="Mozilla/5.0 (Macintosh; Intel Mac OS X 10_15_7) AppleWebKit/537.36 (KHTML, like Gecko) Chrome/111.0.0.0 Safari/537.36" version="21.1.8" etag="ZsBCtpOC3tQxXNYbdHwl" type="github">
  <diagram name="Page-1" id="_FGRYzJXVYo1EMXkDTQ_">
    <mxGraphModel>
      <root>
        <mxCell id="0" />
        <mxCell id="1" parent="0" />
      </root>
    </mxGraphModel>
  </diagram>
</mxfile>
